<svg xmlns="http://www.w3.org/2000/svg" viewBox="0 0 60 32">
  <g font-family="sans-serif" font-size="40" font-weight="400" letter-spacing="-.33" word-spacing="0">
    <g style="line-height:125%">
      <path fill="#54bd8f" d="M42.08 3.6q.74 2.5 1.57 5.22.83 2.68 1.71 5.4.93 2.68 1.8 5.31l1.76 4.9q.69-2.5 1.34-5.4.64-2.96 1.29-6.1.65-3.19 1.25-6.47Q53.44 3.2 54 0h6q-1.62 8.68-3.6 16.72Q54.4 24.7 51.97 32h-5.55q-3.6-9.33-6.97-20.36-1.7 5.58-3.46 10.62-1.76 5.03-3.51 9.74h-5.54q-2.5-7.3-4.48-15.28Q20.52 8.68 18.9 0h6.24q.55 3.14 1.15 6.42l1.3 6.46q.69 3.14 1.38 6.1.7 2.95 1.38 5.45.88-2.36 1.76-4.94.92-2.64 1.8-5.31.88-2.73 1.66-5.4.83-2.68 1.53-5.18h4.98z" font-family="Ubuntu" font-size="45" font-weight="500" style="-inkscape-font-specification:'Ubuntu Medium'"/>
    </g>
    <g style="line-height:125%">
      <path d="M18.63 32q-.48-1.42-1-2.8-.52-1.39-1-2.84H6.5q-.48 1.45-1 2.87L4.54 32H0q1.35-3.84 2.56-7.1 1.21-3.25 2.36-6.16 1.18-2.91 2.32-5.55Q8.38 10.56 9.59 8h4.12q1.22 2.56 2.36 5.2 1.14 2.63 2.28 5.54 1.18 2.9 2.4 6.16 1.24 3.26 2.6 7.1h-4.72zm-7.06-19.36q-.8 1.84-1.84 4.47-1 2.63-2.11 5.71h7.9q-1.11-3.08-2.15-5.75-1.04-2.66-1.8-4.43z" font-family="Ubuntu" font-size="30" font-weight="500" style="-inkscape-font-specification:'Ubuntu Medium'"/>
    </g>
  </g>
</svg>
